<?xml version="1.0" encoding="utf-8"?>
<!-- Generator: Adobe Illustrator 15.0.2, SVG Export Plug-In . SVG Version: 6.00 Build 0)  -->
<!DOCTYPE svg PUBLIC "-//W3C//DTD SVG 1.1//EN" "http://www.w3.org/Graphics/SVG/1.1/DTD/svg11.dtd">
<svg version="1.1" id="Layer_1" xmlns="http://www.w3.org/2000/svg" xmlns:xlink="http://www.w3.org/1999/xlink" x="0px" y="0px"
	 width="50px" height="50px" viewBox="0 0 50 50" enable-background="new 0 0 50 50" xml:space="preserve">
<g>
	<path d="M13.739,32.773c-1.253,1.205-3.132,1.205-4.337,0c-0.578-0.625-0.867-1.349-0.867-2.119c0-0.819,0.289-1.59,0.867-2.217
		l13.733-13.542c0.048-0.145,0.145-0.192,0.289-0.241c0.048-0.048,0.097-0.146,0.097-0.146c0.145-0.097,0.241-0.097,0.385-0.145
		c0.048-0.097,0.145-0.146,0.193-0.146c0.096-0.048,0.241-0.048,0.289-0.097c0.145,0,0.193-0.096,0.241-0.096
		c0.145,0,0.241,0,0.337,0c0.097,0,0.145-0.048,0.29-0.048c0.048,0,0.192,0.048,0.241,0.048c0.096,0,0.241,0,0.337,0
		s0.145,0.096,0.193,0.096c0.145,0.048,0.24,0.048,0.385,0.097c0.049,0,0.049,0.048,0.096,0.048
		c0.145,0.097,0.338,0.145,0.436,0.241c0,0,0.097,0,0.097,0.096c0.097,0.048,0.239,0.145,0.337,0.289l13.732,13.542
		c1.158,1.205,1.158,3.181,0,4.336c-1.203,1.205-3.131,1.205-4.336,0L25.256,21.352L13.739,32.773z"/>
</g>
</svg>
