<?xml version="1.0" encoding="utf-8"?>
<!-- Generator: Adobe Illustrator 15.0.2, SVG Export Plug-In . SVG Version: 6.00 Build 0)  -->
<!DOCTYPE svg PUBLIC "-//W3C//DTD SVG 1.1//EN" "http://www.w3.org/Graphics/SVG/1.1/DTD/svg11.dtd">
<svg version="1.1" id="Layer_1" xmlns="http://www.w3.org/2000/svg" xmlns:xlink="http://www.w3.org/1999/xlink" x="0px" y="0px"
	 width="50px" height="50px" viewBox="0 0 50 50" enable-background="new 0 0 50 50" xml:space="preserve">
<g>
	<path d="M25.256,26.305l11.518-11.42c1.205-1.205,3.133-1.205,4.336,0c1.158,1.156,1.158,3.132,0,4.337l-13.732,13.54
		c-0.098,0.146-0.24,0.241-0.337,0.289c0,0.098-0.097,0.098-0.097,0.098c-0.098,0.097-0.291,0.145-0.436,0.24
		c-0.047,0-0.047,0.049-0.096,0.049c-0.145,0.047-0.24,0.047-0.385,0.097c-0.049,0-0.098,0.096-0.193,0.096
		c-0.098,0-0.241,0-0.337,0c-0.048,0-0.193,0.05-0.241,0.05c-0.145,0-0.193-0.05-0.29-0.05c-0.096,0-0.192,0-0.337,0
		c-0.048,0-0.097-0.096-0.241-0.096c-0.048-0.05-0.193-0.05-0.289-0.097c-0.048,0-0.145-0.049-0.193-0.146
		c-0.145-0.048-0.241-0.048-0.385-0.146c0,0-0.048-0.097-0.097-0.145c-0.145-0.048-0.241-0.097-0.289-0.241L9.402,19.222
		c-0.578-0.627-0.867-1.397-0.867-2.217c0-0.771,0.289-1.494,0.867-2.12c1.205-1.205,3.084-1.205,4.337,0L25.256,26.305z"/>
</g>
</svg>
