<?xml version="1.0" encoding="utf-8"?>
<!-- Generator: Adobe Illustrator 16.0.4, SVG Export Plug-In . SVG Version: 6.00 Build 0)  -->
<!DOCTYPE svg PUBLIC "-//W3C//DTD SVG 1.1//EN" "http://www.w3.org/Graphics/SVG/1.1/DTD/svg11.dtd">
<svg version="1.1" id="Layer_1" xmlns="http://www.w3.org/2000/svg" xmlns:xlink="http://www.w3.org/1999/xlink" x="0px" y="0px"
	 width="2400px" height="5596.645px" viewBox="0 0 2400 5596.645" enable-background="new 0 0 2400 5596.645" xml:space="preserve">
<g>
	<polygon fill="#FBB03B" points="2418,1647.963 1819.285,709 520.168,1498.089 2418,5030.363 	"/>
</g>
<g>
	<defs>
		<path id="SVGID_1_" d="M1979.79,1065.313c0,451.049-365.655,816.703-816.703,816.703c-451.057,0-816.708-365.654-816.708-816.703
			c0-451.048,365.651-816.703,816.708-816.703C1614.135,248.61,1979.79,614.266,1979.79,1065.313z"/>
	</defs>
	<clipPath id="SVGID_2_">
		<use xlink:href="#SVGID_1_"  overflow="visible"/>
	</clipPath>
	<g clip-path="url(#SVGID_2_)">
		<path fill="#C593F9" d="M1632.385,1078.728l-143.706-257.361l-325.791-413.738l-10.771,11.673l-55.64-19.745l-34.104-3.588
			l-64.621,8.969l-111.282,25.135l-10.768,10.771l-1.802,52.051l23.336,68.208l53.85,16.149l428.994,297.966
			c0,0,28.723,78.98,23.332,82.572c-5.381,3.588-369.758,43.078-369.758,43.078s-76.861,2.664-156.76,4.9l4.098,5.932
			l-11.408,67.025H1632.385z"/>
	</g>
	<g clip-path="url(#SVGID_2_)">
		<path fill="#C593F9" d="M2032.659,1225.923l-134.844-272.438L1515.228,483.29l-4.107,13.215l-41.289-23.333l-39.481-14.364
			l-32.315,7.188c0,0-136.412,26.92-147.18,32.306s-46.675,19.741-46.675,19.741l-107.694-19.741l-43.082-3.592l-55.635,5.386
			l-52.061,35.897l-39.49,37.697l-33.242-9.238l394.924,598.854l1.963,62.615H2032.659z"/>
	</g>
	<g clip-path="url(#SVGID_2_)">
		<g>
			<polyline fill="#FBB03B" points="907.306,447.318 1004.589,462.666 1011.573,545.797 998.834,574.749 966.385,590.98 
				930.474,585.183 884.129,563.172 871.386,521.467 865.589,438.05 			"/>
		</g>
	</g>
	<g clip-path="url(#SVGID_2_)">
		<g>
			<polyline fill="#FBB03B" points="1115.845,489.027 1265.304,507.858 1272.294,590.98 1259.546,619.95 1227.101,636.155 
				1139.004,626.892 1092.677,604.89 1079.925,563.172 1074.132,479.754 			"/>
		</g>
	</g>
	<g clip-path="url(#SVGID_2_)">
		<polygon fill="#FBB03B" points="1830.629,710.98 1669.765,710.98 1649.786,685.845 1639.015,705.37 1640.786,710.98 
			1573.011,710.98 1553.751,686.737 1542.979,706.263 1544.474,710.98 1436.42,710.98 1416.437,685.845 1405.665,705.37 
			1407.441,710.98 1021.968,710.98 1002.699,686.737 991.932,706.263 993.418,710.98 925.712,710.98 906.448,686.737 
			895.677,706.263 897.167,710.98 829.993,710.98 810.192,686.071 799.416,705.586 801.128,710.98 582.285,710.98 562.488,686.071 
			551.716,705.586 553.419,710.98 522.105,710.98 522.105,1013.431 683.774,1227.937 2043.302,1227.937 2030,1048.286 		"/>
	</g>
	<g clip-path="url(#SVGID_2_)">
		<g>
			<path fill="#EF4F23" d="M1514.95,475.911l-22.047-2.015l-3.388-18.125l-32.198-3.028l0.846-17.128l-196.507,41.869
				l-186.853-18.203l-5.062,21.097l-54.829-10.979l-0.832-21.088l-88.547-14.468l163.624-31.917l68.321,59.045l17.709-1.69
				l-11.807-53.992l-21.938-1.686l-3.37-15.178l-32.051-2.535l0.849-14.342l-268.255,48.083v37.116l11.803,3.384l9.285,80.982
				l10.109,6.747l2.547,20.247l13.488,4.217l5.061,12.652l92.795,23.623l1.693-9.291l15.188-0.84l4.203-20.244l16.881-6.75
				l7.587-53.147l26.149,5.078l1.686,18.554l10.967,6.732l5.914,38.814l15.187,6.734l1.681,21.941l21.084,7.6l1.686,10.971
				l124.84,16.016l5.915-13.498l20.235-1.689V618.72l15.195-2.539v-88.564h19.395l0.424-23.095l140.738-32.636l68.663,70.514
				l17.796-2.031L1514.95,475.911z M992.989,546.169l-0.846,24.455l-14.762-0.416l-2.955,18.143l-82.672-22.783l-1.248-15.607
				l-11.404-3.791l-6.742-97.018l129.896,22.783l3.375,74.235H992.989z M1236.772,611.12l-0.85,19.406l-117.253-16.018v-17.73
				l-21.929-9.273l0.84-30.373l-9.276-5.053l1.681-21.934l-8.418-3.37l1.672-39.651l117.752,13.987l4.597,2.999l48.208,6.374
				l4.909,98.115L1236.772,611.12z"/>
		</g>
	</g>
	<g clip-path="url(#SVGID_2_)">
		<defs>
			<rect id="SVGID_3_" x="326.903" y="251.045" width="1715.082" height="1328.118"/>
		</defs>
		<clipPath id="SVGID_4_">
			<use xlink:href="#SVGID_3_"  overflow="visible"/>
		</clipPath>
		<g clip-path="url(#SVGID_4_)">
			<polygon fill="#FBB03B" points="1974.282,1090.739 519.289,698.723 519.289,1479.661 642.769,1586.417 2123.175,1586.417 
				2123.175,1090.739 			"/>
		</g>
	</g>
</g>
<g>
	<path fill="#EF4F23" d="M556.503,686.336v24.884h55.262v99.535h-96.708V686.336H556.503z M556.503,736.104v49.768h13.815v-49.768
		H556.503z"/>
	<path fill="#EF4F23" d="M736.437,711.22v99.535h-96.708v-62.209h55.262v-12.442h-55.262V711.22H736.437z M681.175,773.43v12.441
		h13.815V773.43H681.175z"/>
	<path fill="#EF4F23" d="M805.845,785.871h27.631v24.884h-69.077V686.336h41.446v24.884h27.631v24.884h-27.631V785.871z"/>
	<path fill="#EF4F23" d="M902.885,785.871h27.631v24.884h-69.077V686.336h41.446v24.884h27.631v24.884h-27.631V785.871z"/>
	<path fill="#EF4F23" d="M999.925,686.336v124.419h-41.446V686.336H999.925z"/>
	<path fill="#EF4F23" d="M1027.887,810.755V711.22h96.708v62.21h-55.262v12.441h55.262v24.884H1027.887z M1083.148,748.546v-12.442
		h-13.815v12.442H1083.148z"/>
	<path fill="#EF4F23" d="M1318.675,711.22v99.535h-96.708V711.22H1318.675z M1263.413,736.104v49.768h13.815v-49.768H1263.413z"/>
	<path fill="#EF4F23" d="M1388.083,723.662h27.631v24.884h-27.631v62.209h-41.446V686.336h69.077v24.884h-27.631V723.662z"/>
	<path fill="#EF4F23" d="M1554.531,785.871h27.631v24.884h-69.077V686.336h41.446v24.884h27.631v24.884h-27.631V785.871z"/>
	<path fill="#EF4F23" d="M1610.125,810.755V686.336h41.446v24.884h55.262v99.535h-41.446v-74.651h-13.815v74.651H1610.125z"/>
	<path fill="#EF4F23" d="M1734.796,810.755V711.22h96.708v62.21h-55.262v12.441h55.262v24.884H1734.796z M1790.058,748.546v-12.442
		h-13.815v12.442H1790.058z"/>
	<path fill="#EF4F23" d="M671.567,1124.265V987.855h113.601v204.613H520.099V851.446h265.069v68.205H633.7v204.613H671.567z"/>
	<path fill="#EF4F23" d="M983.168,987.855h151.468v68.204H983.168v68.205h151.468v68.204H869.566V851.446h265.069v68.205H983.168
		V987.855z"/>
	<path fill="#EF4F23" d="M1324.881,987.855h151.468v68.204h-151.468v68.205h151.468v68.204h-265.069V851.446h265.069v68.205
		h-151.468V987.855z"/>
	<path fill="#EF4F23" d="M1704.461,1192.469V1056.06h-37.867v136.409h-113.602V851.446h113.602v136.409h37.867V851.446h113.601
		v136.409h-37.867v34.103h37.867v170.511H1704.461z"/>
	<path fill="#EF4F23" d="M721.937,1242.68v105.271h-29.225v26.318h29.225v131.59H517.371v-263.18H721.937z M605.042,1295.315v52.636
		h29.223v-52.636H605.042z M605.188,1400.719v52.636h29.223v-52.636H605.188z"/>
	<path fill="#EF4F23" d="M997.619,1242.68v263.18h-87.671v-105.272h-29.224v105.272h-87.671v-263.18H997.619z M880.725,1295.315
		v52.636h29.224v-52.636H880.725z"/>
	<path fill="#EF4F23" d="M1150.423,1242.68v52.636h29.224v52.636h29.224V1242.68h87.671v263.18h-87.671v-78.954h-29.224v-52.636
		h-29.224v131.59h-87.671v-263.18H1150.423z"/>
	<path fill="#EF4F23" d="M1537.015,1242.68v26.317h29.224v210.544h-29.224v26.318h-175.342v-263.18H1537.015z M1449.344,1295.315
		v157.908h29.224v-157.908H1449.344z"/>
	<path fill="#EF4F23" d="M1625.387,1505.859v-52.636h116.895v-52.637h-116.895V1242.68h204.565v52.636h-116.895v52.636h116.895
		v157.908H1625.387z"/>
</g>
<g>
</g>
<g>
	<path fill="#FBB03B" d="M520.168,1498.089l361.214,252.168l173.789-85.189c0,0,30.668-37.488,3.41-51.115
		c-27.264-13.631-160.162-30.672-245.352-51.115C728.036,1542.39,520.168,1498.089,520.168,1498.089z"/>
</g>
</svg>
