<?xml version="1.0" encoding="utf-8"?>
<!-- Generator: Adobe Illustrator 15.0.2, SVG Export Plug-In . SVG Version: 6.00 Build 0)  -->
<!DOCTYPE svg PUBLIC "-//W3C//DTD SVG 1.1//EN" "http://www.w3.org/Graphics/SVG/1.1/DTD/svg11.dtd">
<svg version="1.1" id="Layer_1" xmlns="http://www.w3.org/2000/svg" xmlns:xlink="http://www.w3.org/1999/xlink" x="0px" y="0px"
	 width="50px" height="50px" viewBox="0 0 50 50" enable-background="new 0 0 50 50" xml:space="preserve">
<g>
	<g>
		<path d="M45.875,12.092H4.25c-1.987,0-3.599-1.611-3.599-3.599c0-1.988,1.612-3.598,3.599-3.598h41.625
			c1.986,0,3.6,1.611,3.6,3.599C49.475,10.482,47.861,12.092,45.875,12.092z"/>
	</g>
	<g>
		<path d="M45.875,29.182H4.25c-1.987,0-3.599-1.611-3.599-3.6s1.611-3.599,3.599-3.599h41.625c1.986,0,3.6,1.611,3.6,3.599
			S47.861,29.182,45.875,29.182z"/>
	</g>
	<g>
		<path d="M45.875,46.1H4.25c-1.987,0-3.599-1.611-3.599-3.6s1.611-3.6,3.599-3.6h41.625c1.986,0,3.6,1.611,3.6,3.6
			S47.861,46.1,45.875,46.1z"/>
	</g>
</g>
</svg>
