<?xml version="1.0" encoding="utf-8"?>
<!-- Generator: Adobe Illustrator 15.0.2, SVG Export Plug-In . SVG Version: 6.00 Build 0)  -->
<!DOCTYPE svg PUBLIC "-//W3C//DTD SVG 1.1//EN" "http://www.w3.org/Graphics/SVG/1.1/DTD/svg11.dtd">
<svg version="1.1" id="Layer_1" xmlns="http://www.w3.org/2000/svg" xmlns:xlink="http://www.w3.org/1999/xlink" x="0px" y="0px"
	 width="500px" height="145px" viewBox="0 0 500 145" enable-background="new 0 0 500 145" xml:space="preserve">
<g>
	<path d="M69.717,62.068c0,1.966-1.615,3.722-3.722,3.722c-1.615,0-3.02,0.421-4.214,1.334c-1.334,0.843-2.388,2.036-3.23,3.371
		c-1.686,2.248-2.528,4.916-2.879,5.899v13.343c0,2.037-1.756,3.723-3.863,3.723c-2.036,0-3.722-1.686-3.722-3.723v-27.67
		c0-2.037,1.686-3.652,3.722-3.652c2.107,0,3.863,1.615,3.863,3.652v0.492c0.421-0.492,0.983-1.054,1.475-1.405
		c2.318-1.545,5.337-2.809,8.849-2.739C68.103,58.417,69.717,60.031,69.717,62.068z"/>
	<path d="M110.027,63.965L98.509,91.213c-0.07,0.211-0.21,0.422-0.281,0.492c0,0.069-0.07,0.069-0.07,0.069
		c-0.141,0.142-0.281,0.351-0.421,0.491c0,0.07-0.07,0.07-0.07,0.07c-0.14,0.211-0.281,0.281-0.421,0.422c0,0-0.07,0-0.07,0.07
		c-0.14,0.141-0.281,0.279-0.492,0.35c0,0,0,0-0.14,0c0,0,0,0,0,0.07c-0.211,0-0.421,0.07-0.562,0.142c-0.07,0-0.07,0-0.141,0
		c-0.281,0.069-0.492,0.069-0.702,0.069c-0.141,0-0.351,0-0.632-0.069c-0.07,0-0.07,0-0.14,0c-0.211-0.07-0.352-0.142-0.562-0.142
		c0-0.07,0-0.07,0-0.07c-0.141,0-0.141,0-0.141,0c-0.21-0.069-0.351-0.209-0.632-0.35c0-0.07-0.07-0.07-0.07-0.07
		c-0.141-0.141-0.281-0.211-0.421-0.422c-0.07,0-0.07,0-0.141-0.07c-0.07-0.141-0.211-0.35-0.351-0.491c-0.07,0-0.07,0-0.07-0.069
		c-0.141-0.07-0.211-0.281-0.281-0.492L80.32,63.965c-0.843-1.896,0.07-3.934,2.036-4.776c1.686-0.843,3.863,0.141,4.706,2.037
		l8.077,19.103l8.146-19.103c0.772-1.896,2.879-2.879,4.705-2.037C109.957,60.031,110.87,62.068,110.027,63.965z"/>
	<path d="M151.95,75.973v13.765c0,2.037-1.686,3.722-3.722,3.722c-1.826,0-3.23-1.334-3.652-3.02c-2.668,1.896-5.829,3.02-9.34,3.02
		c-4.776,0-8.919-1.965-11.939-5.125c-3.02-3.231-4.775-7.586-4.775-12.361c0-4.845,1.755-9.2,4.775-12.36
		c3.02-3.23,7.163-5.267,11.939-5.267c3.511,0,6.672,1.194,9.34,3.09c0.421-1.755,1.826-3.09,3.652-3.09
		c2.037,0,3.722,1.685,3.722,3.792V75.973z M144.506,75.973c0-2.949-1.054-5.478-2.739-7.233c-1.686-1.896-4.073-2.88-6.531-2.88
		c-2.528,0-4.917,0.983-6.531,2.88c-1.686,1.755-2.669,4.284-2.669,7.233c0,2.879,0.983,5.408,2.669,7.232
		c1.615,1.756,4.003,2.739,6.531,2.739c2.458,0,4.846-0.983,6.531-2.739C143.452,81.381,144.506,78.853,144.506,75.973z"/>
	<path d="M186.147,62.209c0,2.107-1.826,3.862-3.933,3.862h-1.755v19.594c2.177,0,3.862,1.756,3.862,3.933
		c0,2.178-1.686,3.862-3.862,3.862c-4.284,0-7.796-3.51-7.796-7.795V66.071h-2.036c-2.177,0-3.863-1.755-3.863-3.862
		c0-2.178,1.686-3.863,3.863-3.863h2.036V48.163c0-2.177,1.756-3.863,3.934-3.863c2.177,0,3.862,1.686,3.862,3.863v10.183h1.755
		C184.322,58.346,186.147,60.031,186.147,62.209z"/>
	<path d="M196.681,75.904c0.07-9.552,7.514-17.558,17.136-17.558c9.129,0,16.363,6.812,16.925,16.293c0,0.07,0,0.211,0,0.352
		s0,0.491-0.07,0.633c-0.21,1.686-1.685,2.81-3.652,2.81h-22.333c0.351,1.614,1.124,3.44,2.388,4.635
		c1.475,1.685,4.284,2.949,6.742,3.16c2.528,0.211,5.548-0.421,7.304-1.756c1.474-1.544,4.354-1.335,5.267-0.212
		c0.913,0.984,1.615,3.092,0,4.566c-3.441,3.16-7.584,4.635-12.571,4.635C204.195,93.39,196.751,85.456,196.681,75.904z
		 M204.335,72.462h19.875c-0.703-2.81-4.284-6.953-10.394-7.445C207.847,65.299,204.897,69.583,204.335,72.462z"/>
	<path d="M238.745,75.973c0-9.761,8.146-17.557,17.838-17.627c4.213,0,8.146,1.545,11.167,3.863
		c1.614,1.264,1.896,3.651,0.771,5.197c-1.404,1.685-3.651,1.966-5.268,0.702c-1.826-1.334-4.074-2.248-6.672-2.248
		c-5.689,0-10.394,4.706-10.394,10.113c0,5.408,4.705,10.043,10.394,10.043c2.527,0,4.846-0.913,6.672-2.247
		c1.545-1.194,3.862-0.913,5.268,0.772c1.123,1.545,0.842,3.791-0.771,5.196c-3.021,2.179-6.954,3.722-11.167,3.722
		C246.891,93.459,238.745,85.594,238.745,75.973z"/>
	<path d="M291.273,89.598c0,2.178-1.756,3.863-3.935,3.863c-1.756,0-3.229-1.266-3.721-2.879c-0.07-0.281-0.142-0.633-0.142-0.983
		V48.163c0-2.177,1.756-3.863,3.861-3.863c2.178,0,3.934,1.686,3.934,3.863v12.22c2.248-1.194,4.775-2.037,7.516-2.037
		c8.497,0,15.31,6.953,15.31,15.38v15.871c0,2.178-1.686,3.862-3.861,3.862c-2.179,0-3.863-1.685-3.863-3.862v-15.87
		c0-4.144-3.371-7.515-7.584-7.585c-4.146,0.07-7.444,3.441-7.515,7.585V89.598L291.273,89.598z"/>
	<path d="M325.682,102.028c0-2.035,1.615-3.722,3.862-3.722V62.209c0-2.178,1.756-3.863,3.793-3.863
		c2.176,0,3.792,1.685,3.792,3.863v36.098c0,4.145-3.371,7.584-7.585,7.584C327.297,105.891,325.682,104.275,325.682,102.028z
		 M329.614,49.638v-1.405c0-2.247,1.756-3.863,3.862-3.863c2.105,0,3.792,1.616,3.792,3.863v1.405c0,2.036-1.687,3.862-3.792,3.862
		C331.37,53.5,329.614,51.674,329.614,49.638z"/>
	<path d="M381.723,75.973v13.765c0,2.037-1.685,3.722-3.722,3.722c-1.826,0-3.231-1.334-3.652-3.02
		c-2.669,1.896-5.829,3.02-9.341,3.02c-4.773,0-8.919-1.965-11.938-5.125c-3.021-3.231-4.776-7.586-4.776-12.361
		c0-4.845,1.756-9.2,4.776-12.36c3.019-3.23,7.163-5.267,11.938-5.267c3.512,0,6.672,1.194,9.341,3.09
		c0.421-1.755,1.826-3.09,3.652-3.09c2.037,0,3.722,1.685,3.722,3.792V75.973z M374.278,75.973c0-2.949-1.055-5.478-2.739-7.233
		c-1.686-1.896-4.072-2.88-6.531-2.88c-2.527,0-4.915,0.983-6.53,2.88c-1.687,1.755-2.669,4.284-2.669,7.233
		c0,2.879,0.982,5.408,2.669,7.232c1.615,1.756,4.003,2.739,6.53,2.739c2.459,0,4.848-0.983,6.531-2.739
		C373.225,81.381,374.278,78.853,374.278,75.973z"/>
	<path d="M423.928,72.884c0,0.07,0,0.141,0,0.21v16.645c0,2.037-1.686,3.723-3.723,3.723c-1.967,0-3.793-1.686-3.793-3.723V73.094
		c0-0.069,0-0.14,0-0.21c-0.069-3.863-3.3-7.023-7.233-7.023c-3.86,0-7.093,3.23-7.093,7.233v16.645c0,0.141-0.07,0.352-0.07,0.492
		c0,0.07,0,0.21,0,0.21c-0.068,0.142-0.068,0.281-0.21,0.422c0,0.07,0,0.212,0,0.351c-0.633,1.265-2.036,2.248-3.512,2.248
		c-0.281,0-0.492-0.069-0.703-0.069c-1.685-0.421-3.019-1.826-3.019-3.651V73.094c0-0.069,0-0.069,0-0.069V62.139
		c0-2.177,1.686-3.792,3.722-3.792c1.475,0,2.809,0.772,3.371,2.106c2.247-1.334,4.845-2.106,7.514-2.106
		c4.427,0,8.357,1.826,11.026,4.846c2.599-3.02,6.602-4.846,11.026-4.846c8.075,0,14.606,6.601,14.606,14.747v16.646
		c0,2.036-1.686,3.721-3.722,3.721c-2.037,0-3.793-1.685-3.793-3.721V73.094c0-4.003-3.23-7.233-7.093-7.233
		C427.228,65.86,424.068,69.021,423.928,72.884z"/>
</g>
<g>
	<g>
		<path d="M491.141,142.147H8.374c-2.061,0-3.733-1.675-3.733-3.74V7.551c0-2.059,1.672-3.735,3.733-3.735h482.767
			c2.062,0,3.736,1.677,3.736,3.735v130.856C494.877,140.473,493.202,142.147,491.141,142.147 M12.11,134.679h475.295V11.287H12.11
			V134.679z"/>
	</g>
</g>
</svg>
