<?xml version="1.0" encoding="utf-8"?>
<!-- Generator: Adobe Illustrator 15.0.2, SVG Export Plug-In . SVG Version: 6.00 Build 0)  -->
<!DOCTYPE svg PUBLIC "-//W3C//DTD SVG 1.1//EN" "http://www.w3.org/Graphics/SVG/1.1/DTD/svg11.dtd">
<svg version="1.1" id="Layer_1" xmlns="http://www.w3.org/2000/svg" xmlns:xlink="http://www.w3.org/1999/xlink" x="0px" y="0px"
	 width="50px" height="50px" viewBox="0 0 50 50" enable-background="new 0 0 50 50" xml:space="preserve">
<path d="M29.111,25.057L48.014,6.154c1.086-1.085,1.086-2.847,0-3.933c-1.087-1.086-2.848-1.086-3.935,0L25.178,21.122L5.656,1.601
	c-1.086-1.086-2.847-1.086-3.933,0s-1.086,2.848,0,3.933l19.521,19.522L1.723,44.577c-1.086,1.086-1.086,2.847,0,3.934
	c0.543,0.542,1.255,0.814,1.966,0.814c0.712,0,1.424-0.272,1.967-0.814L25.178,28.99l18.901,18.9
	c0.543,0.543,1.255,0.814,1.967,0.814c0.711,0,1.423-0.271,1.968-0.814c1.086-1.084,1.086-2.847,0-3.934L29.111,25.057z"/>
</svg>
